<?xml version="1.0" encoding="iso-8859-1"?>
<!-- Generator: Adobe Illustrator 16.0.0, SVG Export Plug-In . SVG Version: 6.00 Build 0)  -->
<!DOCTYPE svg PUBLIC "-//W3C//DTD SVG 1.1//EN" "http://www.w3.org/Graphics/SVG/1.1/DTD/svg11.dtd">
<svg xmlns="http://www.w3.org/2000/svg" xmlns:xlink="http://www.w3.org/1999/xlink" version="1.1" id="Capa_1" x="0px" y="0px" width="512px" height="512px" viewBox="0 0 69.965 69.965" style="enable-background:new 0 0 69.965 69.965;" xml:space="preserve">
<g>
	<path d="M33.346,64.253c-4.32-3.982-7.739-8.262-10.177-12.732h10.177V64.253z M33.346,48.249V36.62H18.78   c0.236,3.942,1.177,7.85,2.804,11.629H33.346z M33.346,33.346v-11.63H21.274c-1.523,3.764-2.373,7.674-2.525,11.63H33.346z    M18.042,48.249c-1.471-3.782-2.324-7.687-2.534-11.629H4.482c0.216,4.072,1.217,7.984,2.978,11.629H18.042z M33.346,18.444V5.015   c-4.559,4.192-8.104,8.706-10.556,13.429H33.346z M51.215,33.346c-0.155-3.958-1.007-7.866-2.528-11.63H36.617v11.63H51.215z    M47.172,18.444c-2.454-4.726-5.999-9.236-10.555-13.429v13.429H47.172z M15.477,33.346c0.138-3.945,0.909-7.853,2.296-11.63H7.46   c-1.763,3.648-2.765,7.557-2.978,11.63H15.477z M19.137,18.444c2.184-4.643,5.356-9.124,9.45-13.333   C20.654,6.8,13.721,11.583,9.296,18.444H19.137z M36.617,64.253c4.323-3.982,7.738-8.257,10.174-12.732H36.617V64.253z    M60.667,51.521H50.476c-2.331,4.733-5.671,9.271-9.941,13.501C48.824,63.505,56.062,58.655,60.667,51.521z M60.667,18.444   C56.239,11.583,49.308,6.8,41.376,5.111c4.095,4.209,7.268,8.69,9.45,13.333H60.667z M19.486,51.521H9.296   c4.602,7.135,11.841,11.984,20.133,13.501C25.159,60.786,21.819,56.249,19.486,51.521z M65.484,33.346   c-0.219-4.073-1.218-7.983-2.979-11.63H52.195c1.387,3.78,2.158,7.688,2.295,11.63H65.484z M48.379,48.249   c1.624-3.782,2.566-7.687,2.802-11.629H36.617v11.629H48.379z M62.501,48.249c1.766-3.649,2.765-7.555,2.977-11.629H54.453   c-0.214,3.942-1.067,7.845-2.536,11.629H62.501z M69.965,34.981C69.965,15.693,54.271,0,34.981,0C15.692,0,0,15.693,0,34.981   c0,19.29,15.692,34.983,34.981,34.983C54.271,69.965,69.965,54.271,69.965,34.981z M67.629,34.981   c0,17.999-14.649,32.647-32.648,32.647c-18,0-32.646-14.648-32.646-32.647c0-18,14.646-32.646,32.646-32.646   C52.979,2.336,67.629,16.981,67.629,34.981z" fill="#FFFFFF"/>
</g>
<g>
</g>
<g>
</g>
<g>
</g>
<g>
</g>
<g>
</g>
<g>
</g>
<g>
</g>
<g>
</g>
<g>
</g>
<g>
</g>
<g>
</g>
<g>
</g>
<g>
</g>
<g>
</g>
<g>
</g>
</svg>
